<svg width="49" height="21" viewBox="0 0 49 21" fill="none" xmlns="http://www.w3.org/2000/svg">
<g opacity="0.2">
<path d="M0 7.84073C0.12 6.23238 0.701995 4.84334 1.745 3.67363C2.787 2.48564 4.171 1.58094 5.896 0.959531C7.64 0.319844 9.60601 0 11.792 0C13.877 0 15.692 0.292428 17.236 0.877285C18.8 1.44386 20.014 2.2389 20.876 3.2624C21.738 4.2859 22.169 5.47389 22.169 6.82637C22.169 7.86815 21.859 8.84595 21.237 9.75979C20.615 10.6554 19.643 11.5418 18.319 12.4191C16.995 13.2781 15.261 14.1828 13.115 15.1332L6.91901 17.9569L6.67799 16.5039H22.801V21H0.481003V17.0522L10.167 12.0901C11.671 11.3042 12.834 10.6462 13.657 10.1162C14.499 9.56789 15.09 9.06527 15.431 8.60836C15.792 8.15144 15.973 7.6671 15.973 7.15535C15.973 6.58877 15.802 6.10444 15.461 5.70235C15.141 5.28198 14.649 4.953 13.987 4.7154C13.326 4.47781 12.514 4.35901 11.551 4.35901C10.348 4.35901 9.365 4.5235 8.603 4.85248C7.841 5.16319 7.269 5.58355 6.888 6.11358C6.507 6.62533 6.27701 7.20104 6.19701 7.84073H0Z" fill="white"/>
<path d="M45.39 0.438644V21H39.224V2.93342H41.119L29.388 14.7493L29.357 12.9674H49V17.1619H24.815V13.1593L37.509 0.438644H45.39Z" fill="white"/>
</g>
</svg>
