<svg width="29" height="20" viewBox="0 0 29 20" fill="none" xmlns="http://www.w3.org/2000/svg">
<path opacity="0.2" d="M28.517 8C28.335 7.6875 26.546 6.88812 26.546 6.88812C26.858 6.72187 27.07 6.6875 27.07 6C27.07 5.25 27.067 5 26.583 5H24.944C24.937 4.985 24.93 4.96937 24.923 4.95375C23.865 2.5625 23.723 1.95812 22.144 1.14437C20.026 0.0550001 16.056 0 14.5 0C12.944 0 8.97397 0.0550001 6.85797 1.14437C5.27697 1.95687 5.31698 2.375 4.07898 4.95375C4.07898 4.96062 4.06599 4.97875 4.05499 5H2.41302C1.93302 5 1.92999 5.25 1.92999 6C1.92999 6.6875 2.14198 6.72187 2.45398 6.88812C2.45398 6.88812 0.724971 7.75 0.482971 8C0.241971 8.25 0 10 0 13C0 16 0.242004 19 0.242004 19H0.963013C0.963013 19.875 1.08701 20 1.45001 20H6.28302C6.64602 20 6.76703 19.875 6.76703 19H22.233C22.233 19.875 22.354 20 22.717 20H27.671C27.912 20 28.033 19.8125 28.033 19H28.758C28.758 19 29 15.9375 29 13C29 10.0625 28.698 8.3125 28.517 8ZM6.60101 10.8087C5.50101 10.9332 4.39502 10.997 3.28802 11C2.05402 11 2.01199 11.0819 1.92499 10.285C1.89199 9.9203 1.90199 9.5528 1.95599 9.1906L1.99402 9H2.17499C2.89999 9 3.581 9.0319 4.867 9.4237C5.52 9.6267 6.13602 9.9452 6.68402 10.365C6.94802 10.5625 7.008 10.75 7.008 10.75L6.60101 10.8087ZM21.534 15.3087L21.267 16H7.73297C7.73297 16 7.75703 15.9619 7.43103 15.3012C7.19003 14.8125 7.49197 14.5 7.96997 14.3225C8.89497 13.9775 11.6 13 14.5 13C17.4 13 20.159 13.8425 21.055 14.3225C21.388 14.5 21.8 14.625 21.534 15.3125V15.3087ZM6.00702 6.77563C5.81102 6.78725 5.61602 6.78875 5.42102 6.78C5.57802 6.49 5.66601 6.16688 5.82001 5.82938C6.30301 4.76688 6.85603 3.56437 7.84003 3.0575C9.26203 2.325 12.21 1.995 14.5 1.995C16.79 1.995 19.738 2.3225 21.16 3.0575C22.144 3.56437 22.694 4.7675 23.18 5.82938C23.335 6.17 23.422 6.49563 23.584 6.7875C23.463 6.79438 23.324 6.7875 22.992 6.77563H6.00702ZM27.015 10.2825C26.885 11.0625 27.006 11 25.712 11C24.605 10.997 23.499 10.9332 22.399 10.8087C22.227 10.7769 22.178 10.4763 22.315 10.365C22.862 9.9405 23.478 9.6216 24.133 9.4237C25.419 9.0319 26.143 8.9794 26.858 9.0056C26.906 9.0075 26.951 9.0277 26.986 9.0623C27.02 9.097 27.041 9.1435 27.044 9.1931C27.078 9.5569 27.069 9.9237 27.015 10.285V10.2825Z" fill="white"/>
</svg>
