<svg width="69" height="69" viewBox="0 0 69 69" fill="none" xmlns="http://www.w3.org/2000/svg">
<path d="M36.699 40.5132H48.722C49.98 40.5132 51 41.5386 51 42.8035V65.7097C51 66.9746 49.98 68 48.722 68H35.051C33.792 68 32.772 66.9746 32.772 65.7097V57.148M32.772 53.486V44.2045M21.032 31.6481L23.453 28.8891C25.193 26.9074 28.235 26.8122 30.093 28.6809L36.123 34.742C37.981 36.6106 37.886 39.6678 35.915 41.4162L27.462 48.9138C26.56 49.7142 25.195 49.6713 24.344 48.8155L16.093 40.5216C15.242 39.6658 15.199 38.293 15.995 37.3859L18.622 34.3936M16.444 53.3218L22.635 47.0985L17.802 42.2396L13.415 46.6497C13.279 46.7869 13.179 46.9569 13.126 47.1436C13.072 47.3303 13.067 47.5276 13.111 47.7169L13.31 48.5853C13.398 48.9703 13.283 49.3731 13.005 49.6525L12.287 50.3744C12.151 50.5119 11.982 50.6122 11.796 50.6658C11.61 50.7194 11.414 50.7246 11.226 50.681L10.362 50.4801C9.97898 50.3911 9.57699 50.5073 9.29899 50.7866L7.77598 52.3184C7.63898 52.4559 7.53998 52.6259 7.48698 52.8126C7.43298 52.9992 7.42797 53.1964 7.47197 53.3856L7.671 54.254C7.759 54.639 7.64499 55.0419 7.36699 55.3212L5.843 56.853C5.706 56.9904 5.53697 57.0906 5.35197 57.1442C5.16597 57.1979 4.96999 57.2031 4.78099 57.1595L3.91697 56.9586C3.53497 56.8707 3.13296 56.9858 2.85496 57.2652L1.93596 58.1891C1.77596 58.3502 1.66701 58.5552 1.62401 58.7781L1.02098 61.8667C0.947978 62.2413 1.06597 62.6274 1.33397 62.8963L2.08696 63.6538C2.21896 63.7866 2.38198 63.8847 2.55998 63.9394C2.73898 63.9941 2.92898 64.0038 3.11198 63.9676L6.18296 63.3619C6.40496 63.319 6.60996 63.2091 6.76896 63.048L13.868 55.9113M20.219 44.6686L16.352 48.5559M30.53 34.3026L38.142 26.6504M41.886 27.8554V44.1779M41.886 44.1779C40.942 44.1779 40.177 44.947 40.177 45.8958C40.177 46.8447 40.942 47.6138 41.886 47.6138C42.83 47.6138 43.595 46.8446 43.595 45.8958C43.595 44.9469 42.83 44.1779 41.886 44.1779ZM45.987 57.807C46.743 57.807 47.355 57.1916 47.355 56.4326V52.6531C47.355 51.894 46.743 51.2787 45.987 51.2787H37.785C37.03 51.2787 36.418 51.894 36.418 52.6531V56.4326C36.418 57.1915 37.03 57.8068 37.785 57.807M45.987 57.807H37.785M45.987 57.807C46.743 57.807 47.355 58.4222 47.355 59.1812V62.9607C47.355 63.7198 46.743 64.3351 45.987 64.3351H37.785C37.03 64.3351 36.418 63.7198 36.418 62.9607V59.1812C36.418 58.4222 37.03 57.807 37.785 57.807M48.736 22.886C48.736 26.689 45.669 29.7719 41.886 29.7719C38.103 29.7719 35.036 26.689 35.036 22.886C35.036 19.083 38.103 16 41.886 16C45.669 16 48.736 19.083 48.736 22.886ZM32.866 39.2426C32.154 39.9583 31 39.9583 30.288 39.2426L25.616 34.5456C24.904 33.8299 24.904 32.6697 25.616 31.9541C26.328 31.2384 27.482 31.2384 28.194 31.9541L32.866 36.6511C33.578 37.3668 33.578 38.527 32.866 39.2426Z" stroke="#1F1F1F" stroke-width="2" stroke-miterlimit="10" stroke-linecap="round" stroke-linejoin="round"/>
<path d="M57 24C63.6274 24 69 18.6274 69 12C69 5.37258 63.6274 0 57 0C50.3726 0 45 5.37258 45 12C45 18.6274 50.3726 24 57 24Z" fill="url(#paint0_linear_1_4)"/>
<path opacity="0.8" d="M52.903 10.412C52.947 9.89133 53.134 9.41833 53.464 8.993C53.794 8.56033 54.271 8.21567 54.894 7.959C55.518 7.70233 56.277 7.574 57.171 7.574C57.934 7.574 58.598 7.66933 59.162 7.86C59.734 8.05067 60.174 8.31833 60.482 8.663C60.798 9.00767 60.955 9.41467 60.955 9.884C60.955 10.2507 60.842 10.588 60.614 10.896C60.394 11.204 60.042 11.4497 59.558 11.633C59.082 11.809 58.458 11.8933 57.688 11.886V11.655C58.407 11.6257 59.023 11.677 59.536 11.809C60.05 11.941 60.442 12.1573 60.713 12.458C60.992 12.7587 61.131 13.14 61.131 13.602C61.131 14.1007 60.97 14.5443 60.647 14.933C60.325 15.3217 59.855 15.626 59.239 15.846C58.631 16.066 57.883 16.176 56.995 16.176C56.137 16.176 55.389 16.0587 54.751 15.824C54.113 15.5893 53.615 15.2557 53.255 14.823C52.903 14.383 52.716 13.8697 52.694 13.283H54.96C55.019 13.6497 55.21 13.932 55.532 14.13C55.862 14.328 56.35 14.427 56.995 14.427C57.582 14.427 58.029 14.339 58.337 14.163C58.653 13.987 58.81 13.7413 58.81 13.426C58.81 13.2427 58.759 13.0887 58.656 12.964C58.561 12.8393 58.389 12.7477 58.139 12.689C57.89 12.623 57.542 12.59 57.094 12.59H55.675V11.05H57.094C57.674 11.05 58.077 10.973 58.304 10.819C58.539 10.665 58.656 10.4597 58.656 10.203C58.656 9.92433 58.521 9.708 58.249 9.554C57.985 9.4 57.586 9.323 57.05 9.323C56.478 9.323 56.038 9.41833 55.73 9.609C55.422 9.79967 55.239 10.0673 55.18 10.412H52.903Z" fill="white"/>
<defs>
<linearGradient id="paint0_linear_1_4" x1="45" y1="16.5" x2="69" y2="6.5" gradientUnits="userSpaceOnUse">
<stop stop-color="#9F7437"/>
<stop offset="1" stop-color="#E3D293"/>
</linearGradient>
</defs>
</svg>
