<svg width="68" height="66" viewBox="0 0 68 66" fill="none" xmlns="http://www.w3.org/2000/svg">
<path d="M36.44 17.936L7.58899 16.0038C6.64799 15.9414 5.83201 16.6555 5.76901 17.5969L5.54401 20.9759H1.70901C0.767015 20.9759 0 21.7435 0 22.687V64.2889C0 65.2323 0.767015 66 1.70901 66H23.793C23.987 65.9992 24.172 65.9225 24.31 65.7864L27.644 62.4631C27.678 62.4704 27.712 62.4761 27.748 62.4785L33.439 62.8596C34.348 62.9197 35.198 62.1799 35.258 61.2665L38.031 19.7576C38.094 18.826 37.371 17.9983 36.44 17.936ZM24.525 63.4917V58.3974C24.525 58.2626 24.635 58.1529 24.77 58.1529H29.838L24.525 63.4917ZM33.797 61.1687C33.773 61.3164 33.686 61.3922 33.537 61.3962L29.018 61.0935L32.118 58.0026C32.187 57.9345 32.241 57.8535 32.278 57.7643C32.315 57.6751 32.334 57.5795 32.334 57.4829V22.6871C32.334 21.7436 31.567 20.976 30.625 20.976H23.009C22.062 20.976 22.062 22.4427 23.009 22.4427H30.625C30.76 22.4427 30.869 22.5524 30.869 22.6871V56.6862H24.77C23.827 56.6862 23.061 57.4539 23.061 58.3974V64.5333H1.70901C1.64401 64.5332 1.58201 64.5075 1.53601 64.4616C1.49101 64.4158 1.465 64.3537 1.465 64.2889V22.6871C1.465 22.5524 1.57401 22.4427 1.70901 22.4427H19.108C20.055 22.4427 20.055 20.976 19.108 20.976H7.01199L7.23099 17.6949C7.25499 17.5471 7.341 17.4714 7.491 17.4674L36.342 19.3995C36.49 19.4233 36.566 19.5101 36.57 19.6597L33.797 61.1687Z" fill="#1F1F1F"/>
<path d="M26.155 39.1468H6.179C5.985 39.1468 5.79902 39.2241 5.66102 39.3616C5.52402 39.4991 5.447 39.6857 5.447 39.8802C5.447 40.0747 5.52402 40.2612 5.66102 40.3987C5.79902 40.5363 5.985 40.6135 6.179 40.6135H26.155C26.56 40.6135 26.887 40.2852 26.887 39.8802C26.887 39.4752 26.56 39.1468 26.155 39.1468ZM26.155 44.2592H6.179C5.985 44.2592 5.79902 44.3365 5.66102 44.474C5.52402 44.6115 5.447 44.7981 5.447 44.9926C5.447 45.1871 5.52402 45.3736 5.66102 45.5111C5.79902 45.6487 5.985 45.7259 6.179 45.7259H26.155C26.56 45.7259 26.887 45.3976 26.887 44.9926C26.887 44.5876 26.56 44.2592 26.155 44.2592ZM5.447 34.7678C5.447 34.9623 5.52402 35.1488 5.66102 35.2863C5.79902 35.4239 5.985 35.5011 6.179 35.5011H26.155C26.56 35.5011 26.887 35.1728 26.887 34.7678C26.887 34.3628 26.56 34.0344 26.155 34.0344H6.179C5.985 34.0344 5.79902 34.1117 5.66102 34.2492C5.52402 34.3867 5.447 34.5733 5.447 34.7678ZM8.96602 29.6554C8.96602 29.8499 9.04301 30.0364 9.18001 30.1739C9.31701 30.3115 9.50401 30.3887 9.69801 30.3887H22.636C22.83 30.3887 23.017 30.3115 23.154 30.1739C23.291 30.0364 23.369 29.8499 23.369 29.6554C23.369 29.4609 23.291 29.2743 23.154 29.1368C23.017 28.9993 22.83 28.922 22.636 28.922H9.69801C9.50401 28.922 9.31701 28.9993 9.18001 29.1368C9.04301 29.2743 8.96602 29.4609 8.96602 29.6554ZM19.019 58.8729C17.702 58.8764 16.384 58.8792 15.067 58.8813C14.624 58.8819 14.182 58.8825 13.739 58.8828C12.937 58.8834 12.396 58.7222 12.217 57.8386C12.065 57.0916 11.009 57.192 10.804 57.8386C10.297 59.4361 9.45903 58.8102 8.98903 57.7357C8.52103 56.6637 8.40103 55.464 8.19603 54.3232C8.04603 53.4849 6.78001 53.7199 6.75801 54.5181C6.72901 55.5694 6.63003 56.6039 6.36403 57.6234C6.08903 58.6753 5.67702 59.6863 5.26802 60.6914C4.91202 61.5676 6.32901 61.9445 6.68101 61.0813C7.04301 60.1907 7.40601 59.2953 7.67601 58.3714C8.17801 59.58 9.21603 60.947 10.696 60.1413C10.971 59.9915 11.229 59.7784 11.454 59.5299C12.224 60.4203 13.369 60.3501 14.441 60.3488C15.967 60.3469 17.493 60.3436 19.019 60.3395C19.962 60.3371 19.963 58.8704 19.019 58.8729ZM49.407 40.0652C49.027 39.686 48.504 39.4915 47.972 39.4771L47.419 39.4799V38.4318C47.419 37.7934 47.04 37.1189 46.498 36.783V35.3067C46.498 32.2688 41.774 32.282 41.774 35.321V36.7975C41.221 37.1395 40.85 37.7499 40.85 38.4453V39.5191C38.412 39.6853 38.405 43.4053 40.853 43.5507C40.869 46.8337 40.868 50.0628 40.85 53.4007C40.846 54.3212 42.31 54.3752 42.315 53.4084C42.333 50.0677 42.334 46.8357 42.318 43.55L45.952 43.5319C45.952 43.5319 45.947 54.3706 45.947 59.2533C45.947 61.6331 42.313 61.6489 42.313 59.2286L42.314 57.8912C42.371 56.9447 40.909 56.8564 40.852 57.8029V59.0578C40.852 60.1333 41.184 61.0442 41.827 61.685C41.884 63.2194 42.53 64.7042 43.621 65.7874C43.934 66.0984 44.367 66.0033 44.67 65.7696C45.78 64.6564 46.405 63.1888 46.445 61.6224C46.928 61.1403 47.412 60.6548 47.412 58.9925L47.413 52.3092C48.679 52.6699 50 51.6885 50 50.3589V41.493C50.001 41.2276 49.949 40.9646 49.847 40.7195C49.745 40.4743 49.596 40.2519 49.407 40.0652ZM42.315 39.5052V38.4452C42.315 38.2282 42.464 38.0462 42.664 37.9921L45.596 37.9776C45.678 37.9979 45.754 38.0367 45.815 38.0979C45.859 38.1416 45.894 38.1936 45.918 38.2509C45.942 38.3082 45.954 38.3697 45.954 38.4318V39.4872L42.315 39.5052ZM44.139 34.4207C44.588 34.4207 45.033 34.862 45.033 35.3067V36.4963L43.239 36.5052V35.321C43.239 34.8269 43.642 34.4231 44.139 34.4207ZM44.138 64.1359C43.797 63.6519 43.551 63.1076 43.413 62.5318C43.64 62.5809 43.87 62.6066 44.1 62.6066C44.356 62.6066 44.612 62.5747 44.865 62.513C44.731 63.0964 44.484 63.6478 44.138 64.1359ZM48.535 50.3589C48.535 51.0532 47.417 51.1079 47.417 50.3717C47.417 50.3717 47.418 43.4319 47.419 42.7958C47.419 42.3855 47.079 42.0615 46.681 42.0615L40.979 42.0899C40.271 42.0899 40.288 40.9819 40.986 40.9785L47.98 40.9438C48.318 40.9727 48.503 41.1558 48.535 41.493V50.3589Z" fill="#1F1F1F"/>
<path d="M56 24C62.6274 24 68 18.6274 68 12C68 5.37258 62.6274 0 56 0C49.3726 0 44 5.37258 44 12C44 18.6274 49.3726 24 56 24Z" fill="url(#paint0_linear_1_3)"/>
<path opacity="0.8" d="M51.782 10.72C51.826 10.0747 52.038 9.51733 52.42 9.048C52.801 8.57133 53.307 8.20833 53.938 7.959C54.576 7.70233 55.294 7.574 56.094 7.574C56.856 7.574 57.52 7.69133 58.085 7.926C58.657 8.15333 59.1 8.47233 59.416 8.883C59.731 9.29367 59.889 9.77033 59.889 10.313C59.889 10.731 59.775 11.1233 59.548 11.49C59.32 11.8493 58.965 12.205 58.481 12.557C57.997 12.9017 57.362 13.2647 56.578 13.646L54.312 14.779L54.224 14.196H60.12V16H51.958V14.416L55.5 12.425C56.05 12.1097 56.475 11.8457 56.776 11.633C57.084 11.413 57.3 11.2113 57.425 11.028C57.557 10.8447 57.623 10.6503 57.623 10.445C57.623 10.2177 57.56 10.0233 57.436 9.862C57.318 9.69333 57.139 9.56133 56.897 9.466C56.655 9.37067 56.358 9.323 56.006 9.323C55.566 9.323 55.206 9.389 54.928 9.521C54.649 9.64567 54.44 9.81433 54.301 10.027C54.161 10.2323 54.077 10.4633 54.048 10.72H51.782Z" fill="white"/>
<defs>
<linearGradient id="paint0_linear_1_3" x1="44" y1="16.5" x2="68" y2="6.5" gradientUnits="userSpaceOnUse">
<stop stop-color="#9F7437"/>
<stop offset="1" stop-color="#E3D293"/>
</linearGradient>
</defs>
</svg>
